<svg xmlns="http://www.w3.org/2000/svg" viewBox="0 0 920 176" width="920" height="176" font-family="'Cascadia Code','SF Mono',Consolas,Menlo,monospace"><style>.h4{font-size:10.5px;fill:#8fa3b8;letter-spacing:1px;text-transform:uppercase}.val{font-size:22px;font-weight:700;fill:#57d9a3}.sub{font-size:10.5px;fill:#8fa3b8}@keyframes pulse{50%{opacity:.35}}.dot{fill:#57d9a3;animation:pulse 2.2s ease-in-out infinite}@keyframes scroll{to{transform:translateX(-104px)}}.spark{animation:scroll 5.2s linear infinite}@keyframes pop{0%{r:3}50%{r:4.5}100%{r:3}}.tip{fill:#57d9a3;animation:pop 1.4s ease-in-out infinite}@keyframes gdraw{0%{stroke-dashoffset:163}18%,100%{stroke-dashoffset:3}}.garc{fill:none;stroke:#57d9a3;stroke-width:9;stroke-linecap:round;stroke-dasharray:163;animation:gdraw 12s ease-out infinite}@keyframes shimmer{to{transform:translateX(190px)}}.shim{animation:shimmer 2.8s linear infinite}@keyframes bar0{0%{transform:scaleY(0)}8%{transform:scaleY(0)}20%,100%{transform:scaleY(1)}}@keyframes bar1{0%{transform:scaleY(0)}11%{transform:scaleY(0)}23%,100%{transform:scaleY(1)}}@keyframes bar2{0%{transform:scaleY(0)}14%{transform:scaleY(0)}26%,100%{transform:scaleY(1)}}@keyframes bar3{0%{transform:scaleY(0)}17%{transform:scaleY(0)}29%,100%{transform:scaleY(1)}}@keyframes bar4{0%{transform:scaleY(0)}20%{transform:scaleY(0)}32%,100%{transform:scaleY(1)}}@keyframes bar5{0%{transform:scaleY(0)}23%{transform:scaleY(0)}35%,100%{transform:scaleY(1)}}@keyframes bar6{0%{transform:scaleY(0)}26%{transform:scaleY(0)}38%,100%{transform:scaleY(1)}}@keyframes bar7{0%{transform:scaleY(0)}29%{transform:scaleY(0)}41%,100%{transform:scaleY(1)}}@keyframes bar8{0%{transform:scaleY(0)}32%{transform:scaleY(0)}44%,100%{transform:scaleY(1)}}@keyframes bar9{0%{transform:scaleY(0)}35%{transform:scaleY(0)}47%,100%{transform:scaleY(1)}}</style><defs></defs><rect x="0" y="1" width="221" height="174" rx="8" fill="#111924" stroke="#263140"/><circle cx="18" cy="20" r="3.5" class="dot"/><text x="30" y="24" class="h4">commits &#183; week</text><text x="16" y="56" class="val">34</text><clipPath id="spc"><rect x="8" y="66" width="205" height="100"/></clipPath><g clip-path="url(#spc)"><g class="spark"><polyline points="8.0,104.7 16.0,113.1 24.0,88.9 32.0,116.9 40.0,94.5 48.0,102.7 56.0,117.6 64.0,95.8 72.0,118.6 80.0,99.4 88.0,117.0 96.0,116.0 104.0,99.9 112.0,80.4 120.0,114.4 128.0,109.6 136.0,90.0 144.0,74.5 152.0,92.5 160.0,101.2 168.0,73.1 176.0,118.1 184.0,78.9 192.0,106.4 200.0,113.4 208.0,114.7 216.0,105.5 224.0,80.9 232.0,104.7 240.0,113.1 248.0,88.9 256.0,116.9 264.0,94.5 272.0,102.7 280.0,117.6 288.0,95.8 296.0,118.6 304.0,99.4 312.0,117.0 320.0,116.0 328.0,99.9 336.0,80.4 344.0,114.4 352.0,109.6 360.0,90.0 368.0,74.5 376.0,92.5 384.0,101.2 392.0,73.1 400.0,118.1 408.0,78.9 416.0,106.4 424.0,113.4 432.0,114.7 440.0,105.5 448.0,80.9" fill="none" stroke="#57d9a3" stroke-width="1.6"/></g><circle cx="205" cy="114.7" r="3" class="tip"/></g><rect x="233" y="1" width="221" height="174" rx="8" fill="#111924" stroke="#263140"/><circle cx="251" cy="20" r="3.5" class="dot"/><text x="263" y="24" class="h4">code quality</text><path d="M291.5 140 A52 52 0 0 1 395.5 140" fill="none" stroke="#263140" stroke-width="9" stroke-linecap="round"/><path d="M291.5 140 A52 52 0 0 1 395.5 140" class="garc"/><text x="343.5" y="126" text-anchor="middle" class="val">98.2%</text><text x="343.5" y="142" text-anchor="middle" class="sub">sonarqube gate: passed</text><rect x="466" y="1" width="221" height="174" rx="8" fill="#111924" stroke="#263140"/><circle cx="484" cy="20" r="3.5" class="dot"/><text x="496" y="24" class="h4">uptime</text><text x="482" y="66" class="val">6y+ shipping</text><text x="482" y="88" class="sub">since first commit &#183; 2020</text><rect x="482" y="110" width="189" height="7" rx="3.5" fill="#161f2c"/><clipPath id="upc"><rect x="482" y="110" width="188.6" height="7" rx="3.5"/></clipPath><g clip-path="url(#upc)"><rect x="482" y="110" width="189" height="7" fill="#2c5c49"/><rect x="416" y="110" width="50" height="7" fill="#57d9a3" opacity=".6" class="shim"/></g><text x="482" y="136" class="sub">availability 99.98%</text><rect x="699" y="1" width="221" height="174" rx="8" fill="#111924" stroke="#263140"/><circle cx="717" cy="20" r="3.5" class="dot"/><text x="729" y="24" class="h4">deploys &#183; month</text><text x="715" y="56" class="val">24</text><rect x="713" y="131.3" width="13" height="30.7" rx="2" fill="rgba(87,217,163,.45)" style="transform-origin:0 162px;animation:bar0 10s ease-out infinite"/><rect x="733" y="103.3" width="13" height="58.7" rx="2" fill="rgba(87,217,163,.45)" style="transform-origin:0 162px;animation:bar1 10s ease-out infinite"/><rect x="753" y="99.3" width="13" height="62.7" rx="2" fill="rgba(87,217,163,.45)" style="transform-origin:0 162px;animation:bar2 10s ease-out infinite"/><rect x="773" y="117.9" width="13" height="44.1" rx="2" fill="rgba(87,217,163,.45)" style="transform-origin:0 162px;animation:bar3 10s ease-out infinite"/><rect x="793" y="105.7" width="13" height="56.3" rx="2" fill="rgba(87,217,163,.45)" style="transform-origin:0 162px;animation:bar4 10s ease-out infinite"/><rect x="813" y="139.6" width="13" height="22.4" rx="2" fill="rgba(87,217,163,.45)" style="transform-origin:0 162px;animation:bar5 10s ease-out infinite"/><rect x="833" y="139.8" width="13" height="22.2" rx="2" fill="rgba(87,217,163,.45)" style="transform-origin:0 162px;animation:bar6 10s ease-out infinite"/><rect x="853" y="129.6" width="13" height="32.4" rx="2" fill="rgba(87,217,163,.45)" style="transform-origin:0 162px;animation:bar7 10s ease-out infinite"/><rect x="873" y="96.4" width="13" height="65.6" rx="2" fill="rgba(87,217,163,.45)" style="transform-origin:0 162px;animation:bar8 10s ease-out infinite"/><rect x="893" y="114.1" width="13" height="47.9" rx="2" fill="#57d9a3" style="transform-origin:0 162px;animation:bar9 10s ease-out infinite"/></svg>